2.2Hz3min_grf.mot
version=1
nRows=12
nColumns 19
inDegrees=yes
endheader
time	1_ground_force_vx	1_ground_force_vy	1_ground_force_vz	1_ground_force_px	1_ground_force_py	1_ground_force_pz	1_ground_torque_x	1_ground_torque_y	1_ground_torque_z	2_ground_force_vx	2_ground_force_vy	2_ground_force_vz	2_ground_force_px	2_ground_force_py	2_ground_force_pz	2_ground_torque_x	2_ground_torque_y	2_ground_torque_z
            3.751500	          -19.583267	          658.146918	          -81.368981	           -0.170720	            0.006008	           -0.352408	           -0.070538	            2.370619	           -0.293088	           -5.821393	          662.968548	           92.423238	           -0.192920	            0.005859	           -0.717732	            0.007689	           -0.875694	           -0.122079
            3.752000	          -19.673956	          655.802433	          -81.149527	           -0.170644	            0.006009	           -0.352735	           -0.067014	            2.233798	           -0.276412	           -5.438016	          660.576513	           92.273746	           -0.193007	            0.005858	           -0.717625	            0.007130	           -0.866048	           -0.120975
            3.752500	          -19.579451	          653.454838	          -80.196833	           -0.170529	            0.006008	           -0.352534	           -0.067178	            2.242026	           -0.275158	           -5.099803	          657.634337	           91.418387	           -0.192951	            0.005857	           -0.717420	            0.006565	           -0.846625	           -0.117690
            3.753000	          -18.936604	          651.470890	          -79.931785	           -0.170483	            0.006008	           -0.352489	           -0.063101	            2.170861	           -0.266352	           -4.902598	          654.874059	           91.033027	           -0.192883	            0.005857	           -0.717218	            0.005926	           -0.791567	           -0.110034
            3.753500	          -18.797817	          647.684324	          -79.719083	           -0.170464	            0.006008	           -0.352577	           -0.061571	            2.121447	           -0.261115	           -4.796353	          651.376333	           90.832790	           -0.192944	            0.005856	           -0.717141	            0.005376	           -0.730053	           -0.101804
            3.754000	          -18.704011	          644.797339	          -79.089703	           -0.170210	            0.006009	           -0.352708	           -0.061220	            2.110478	           -0.258868	           -4.184146	          650.459106	           90.453821	           -0.192933	            0.005858	           -0.717467	            0.005124	           -0.796493	           -0.110761
            3.754500	          -18.014588	          643.172616	          -78.502227	           -0.170308	            0.006009	           -0.352653	           -0.062037	            2.214903	           -0.270339	           -3.705301	          647.516768	           89.786116	           -0.192789	            0.005858	           -0.717288	            0.004403	           -0.769450	           -0.106694
            3.755000	          -18.059630	          640.648237	          -78.375379	           -0.170265	            0.006008	           -0.352612	           -0.058567	            2.077623	           -0.254171	           -3.603085	          645.124220	           89.495966	           -0.192712	            0.005858	           -0.717409	            0.004014	           -0.718733	           -0.099708
            3.755500	          -17.736574	          637.581000	          -77.747325	           -0.169877	            0.006009	           -0.352656	           -0.058644	            2.108101	           -0.257064	           -3.359715	          642.548481	           89.064322	           -0.192647	            0.005859	           -0.717528	            0.003613	           -0.691034	           -0.095785
            3.756000	          -17.231339	          635.416926	          -77.528577	           -0.170176	            0.006009	           -0.352729	           -0.054998	            2.028077	           -0.247450	           -3.258307	          640.341184	           88.446324	           -0.192743	            0.005859	           -0.717538	            0.003592	           -0.706013	           -0.097517
            3.756500	          -17.001191	          633.433095	          -77.308372	           -0.170134	            0.006009	           -0.352717	           -0.051366	            1.913790	           -0.233572	           -2.871065	          636.845188	           88.011335	           -0.192630	            0.005859	           -0.717431	            0.002857	           -0.633629	           -0.087567
            3.757000	          -16.769628	          629.284307	          -76.684729	           -0.169849	            0.006010	           -0.352900	           -0.051500	            1.932532	           -0.235499	           -2.347323	          634.455167	           87.439437	           -0.192566	            0.005859	           -0.717556	            0.002418	           -0.653674	           -0.090088
